<svg xmlns="http://www.w3.org/2000/svg" viewBox="0 0 446.33 310.32"><defs><style>.cls-1{fill:#ffb3a9;}.cls-2{fill:#ffd1cb;}.cls-3{fill:#ffc0bb;}.cls-4{fill:#e74c3b;}.cls-5{fill:#ff6251;}.cls-6{fill:#ffa094;}.cls-7{fill:#ffecea;}.cls-8{fill:#ffd9d4;}.cls-9{fill:#e46a5d;}.cls-10{fill:#a12e21;}.cls-11{fill:#c33728;}.cls-12{fill:#fa4734;}</style></defs><title>computer-repair-illustration</title><g id="Layer_7" data-name="Layer 7"><path class="cls-1" d="M146.83,78.83c-40.45,30.69-74.48,39.38-99,41.23-15.16,1.15-23.82-.74-31.55,5.31-35,27.41,12,135.51,12,135.51s33.67,112.94,76.44,106.91,48.33-35,158.88-43.27c60.54-4.51,86.36,22.16,125.76,5.67a81.56,81.56,0,0,0,27.2-19c13.52-19.09,34.39-55.41,33.06-102-2.31-81.13-71.82-161.63-114.93-150.46C275,74.19,276.87,98.4,220.41,104.79,200.72,107,198.9,80.11,182.78,73.41,175.89,70.54,164.78,69.46,146.83,78.83Z" transform="translate(-3.29 -57.7)"/></g><g id="Layer_5" data-name="Layer 5"><path class="cls-2" d="M441,161.71c-20.27-62-71.79-111.92-106.35-103C275,74.19,282,82,225.54,88.41c-19.69,2.23-26.64-8.3-42.76-15-6.89-2.87-18-4-35.95,5.42-40.45,30.69-74.48,39.38-99,41.23-15.16,1.15-23.82-.74-31.55,5.31C-6.9,143.49,5.8,196.89,17.06,231,120.53,201.14,440.56,161.76,441,161.71Z" transform="translate(-3.29 -57.7)"/></g><g id="Layer_1" data-name="Layer 1"><path class="cls-3" d="M107.71,162.08c-1.1-2.92-3.37-8.44-5.38-9.68-1.16-.73-4.37-.59-6.47-.4a4.68,4.68,0,0,1-3.3-1.16L80.23,138.51l14-14,3.59-1.07,3.58-6.11L96.18,112l-6.11,3.59L89,119.21l-14,14-11.6-11.6a4.63,4.63,0,0,1-1.16-3.3c.19-2.09.33-5.31-.39-6.47-1.25-2-6.77-4.29-9.69-5.38a3.17,3.17,0,0,0-3.06.58,1.84,1.84,0,0,0,.14,2.6l4.66,4.66a1.93,1.93,0,0,1,0,2.74l-5.34,5.35a2,2,0,0,1-2.74,0l-4.66-4.66a1.84,1.84,0,0,0-2.6-.14,3.12,3.12,0,0,0-.58,3.05c1.09,2.93,3.37,8.44,5.37,9.69,1.17.72,4.38.58,6.47.39a4.66,4.66,0,0,1,3.3,1.16l5.24,5.24-.42.42a2.35,2.35,0,0,0,0,3.33L35.84,163a3.56,3.56,0,0,0,0,5.05l9.6,9.61a3.58,3.58,0,0,0,5.05,0l22.08-22.08a2.35,2.35,0,0,0,3.33,0l.41-.41,6,6a4.65,4.65,0,0,1,1.16,3.29c-.19,2.1-.33,5.32.39,6.48,1.25,2,6.77,4.28,9.69,5.37a3.1,3.1,0,0,0,3-.58,1.84,1.84,0,0,0-.14-2.6l-4.66-4.66a2,2,0,0,1,0-2.74l5.35-5.34a1.93,1.93,0,0,1,2.74,0l4.66,4.66a1.85,1.85,0,0,0,2.6.14A3.17,3.17,0,0,0,107.71,162.08Z" transform="translate(-3.29 -57.7)"/><path class="cls-3" d="M259.25,155.13a6.46,6.46,0,0,0-4-1.67h-2.34a4.71,4.71,0,0,0,4.69-4.7V82.11a4.71,4.71,0,0,0-4.69-4.7H147.73a4.71,4.71,0,0,0-4.69,4.7v66.65a4.71,4.71,0,0,0,4.69,4.7h-2.34a6.46,6.46,0,0,0-4,1.67l-25.73,26.23v3.84c0,2.12,2.1,3.84,4.7,3.84H280.28c2.6,0,4.7-1.72,4.7-3.84v-3.84ZM149.88,84.26H250.76v62.35H149.88Zm-5.13,74.16a2.94,2.94,0,0,1,.72-.27H255.25a2.47,2.47,0,0,1,.71.33l17.83,18.17H126.85Zm70,24.13a1.34,1.34,0,0,1-1.45,1.18H187.38a1.34,1.34,0,0,1-1.45-1.18v-1.19h28.78Z" transform="translate(-3.29 -57.7)"/><path class="cls-3" d="M391.58,263.28a5.18,5.18,0,1,0,5.18,5.18A5.18,5.18,0,0,0,391.58,263.28Z" transform="translate(-3.29 -57.7)"/><path class="cls-3" d="M428.44,152.41H354.72a10.86,10.86,0,0,0-10.84,10.85V299.91a10.86,10.86,0,0,0,10.84,10.85h73.72a10.86,10.86,0,0,0,10.84-10.85V163.26A10.86,10.86,0,0,0,428.44,152.41ZM435,299.91a6.51,6.51,0,0,1-6.51,6.51H354.72a6.5,6.5,0,0,1-6.5-6.51V163.26a6.5,6.5,0,0,1,6.5-6.51h73.72a6.51,6.51,0,0,1,6.51,6.51Z" transform="translate(-3.29 -57.7)"/><rect class="cls-3" x="358.86" y="141.26" width="58.87" height="13.34"/><path class="cls-3" d="M428.44,161.09H354.72a2.17,2.17,0,0,0-2.16,2.17V299.91a2.17,2.17,0,0,0,2.16,2.17h73.72a2.17,2.17,0,0,0,2.17-2.17V163.26A2.17,2.17,0,0,0,428.44,161.09ZM391.58,291.82a4.12,4.12,0,1,1,4.12-4.12A4.11,4.11,0,0,1,391.58,291.82Zm0-13.84a9.52,9.52,0,1,1,9.52-9.52A9.53,9.53,0,0,1,391.58,278Zm33.77-38.45a4.33,4.33,0,0,1-4.33,4.34H362.15a4.34,4.34,0,0,1-4.34-4.34V226.19a4.34,4.34,0,0,1,4.34-4.34H421a4.33,4.33,0,0,1,4.33,4.34Zm0-27.23a4.33,4.33,0,0,1-4.33,4.34H362.15a4.34,4.34,0,0,1-4.34-4.34V199a4.34,4.34,0,0,1,4.34-4.34H421a4.34,4.34,0,0,1,4.33,4.34Zm0-27.23a4.33,4.33,0,0,1-4.33,4.34H362.15a4.34,4.34,0,0,1-4.34-4.34V171.73a4.34,4.34,0,0,1,4.34-4.34H421a4.33,4.33,0,0,1,4.33,4.34Z" transform="translate(-3.29 -57.7)"/><rect class="cls-3" x="358.86" y="168.49" width="58.87" height="13.34"/><rect class="cls-3" x="358.86" y="114.03" width="58.87" height="13.34"/><rect class="cls-4" x="255.34" y="55.34" width="118.07" height="203.75" rx="8.86"/><rect class="cls-5" x="261.24" y="61.25" width="106.26" height="191.94" rx="2.95"/><rect class="cls-6" x="268.4" y="69.82" width="91.95" height="29.98" rx="5.91"/><path class="cls-4" d="M357.73,159H277.59a7.39,7.39,0,0,1-7.38-7.38V133.42a7.39,7.39,0,0,1,7.38-7.38h80.14a7.39,7.39,0,0,1,7.38,7.38v18.17A7.39,7.39,0,0,1,357.73,159Zm-80.14-30a4.43,4.43,0,0,0-4.43,4.42v18.17a4.44,4.44,0,0,0,4.43,4.43h80.14a4.44,4.44,0,0,0,4.43-4.43V133.42a4.43,4.43,0,0,0-4.43-4.42Z" transform="translate(-3.29 -57.7)"/><rect class="cls-6" x="268.4" y="106.89" width="91.95" height="29.97" rx="5.91"/><path class="cls-4" d="M357.73,196H277.59a7.39,7.39,0,0,1-7.38-7.38V170.5a7.39,7.39,0,0,1,7.38-7.38h80.14a7.39,7.39,0,0,1,7.38,7.38v18.16A7.39,7.39,0,0,1,357.73,196Zm-80.14-30a4.44,4.44,0,0,0-4.43,4.43v18.16a4.44,4.44,0,0,0,4.43,4.43h80.14a4.44,4.44,0,0,0,4.43-4.43V170.5a4.44,4.44,0,0,0-4.43-4.43Z" transform="translate(-3.29 -57.7)"/><rect class="cls-6" x="268.4" y="143.96" width="91.95" height="29.98" rx="5.91"/><path class="cls-4" d="M357.73,233.11H277.59a7.39,7.39,0,0,1-7.38-7.38V207.57a7.39,7.39,0,0,1,7.38-7.39h80.14a7.39,7.39,0,0,1,7.38,7.39v18.16A7.39,7.39,0,0,1,357.73,233.11Zm-80.14-30a4.43,4.43,0,0,0-4.43,4.43v18.16a4.43,4.43,0,0,0,4.43,4.43h80.14a4.43,4.43,0,0,0,4.43-4.43V207.57a4.43,4.43,0,0,0-4.43-4.43Z" transform="translate(-3.29 -57.7)"/><path class="cls-5" d="M307.66,265.11a10,10,0,1,1,10,10A10,10,0,0,1,307.66,265.11Z" transform="translate(-3.29 -57.7)"/><path class="cls-7" d="M317.66,278.07a13,13,0,1,1,12.95-13A13,13,0,0,1,317.66,278.07Zm0-20a7.05,7.05,0,1,0,7,7.05A7.06,7.06,0,0,0,317.66,258.06Z" transform="translate(-3.29 -57.7)"/><path class="cls-7" d="M312.05,291.31a5.61,5.61,0,1,1,5.61,5.6A5.61,5.61,0,0,1,312.05,291.31Z" transform="translate(-3.29 -57.7)"/><path class="cls-8" d="M109.37,135.57a36,36,0,1,1,36,36A36,36,0,0,1,109.37,135.57Z" transform="translate(-3.29 -57.7)"/><path class="cls-4" d="M145.38,179a43.39,43.39,0,1,1,43.39-43.39A43.43,43.43,0,0,1,145.38,179Zm0-72A28.63,28.63,0,1,0,174,135.57,28.66,28.66,0,0,0,145.38,107Z" transform="translate(-3.29 -57.7)"/><polygon class="cls-5" points="148.4 99.42 135.77 99.42 119.43 72.41 132.06 64.77 142.09 81.34 174.16 28.36 186.79 36.01 148.4 99.42"/><path class="cls-4" d="M206.55,320.83V209.65a3.19,3.19,0,0,0-3.19-3.19H33.1a3.19,3.19,0,0,0-3.19,3.19V320.83A3.19,3.19,0,0,0,33.1,324h69.23v8.14h-12a8.4,8.4,0,0,0-8.41,8.4v3.12a3.16,3.16,0,0,0,3.19,3.11h66.22a3.16,3.16,0,0,0,3.19-3.11v-3.12a8.4,8.4,0,0,0-8.4-8.4h-12V324h69.23A3.19,3.19,0,0,0,206.55,320.83Z" transform="translate(-3.29 -57.7)"/><rect class="cls-8" x="33.77" y="155.91" width="162.34" height="103.27"/><path class="cls-9" d="M91.83,223.33a2.19,2.19,0,0,0,.16,3.09l5.53,5.52a2.31,2.31,0,0,1,0,3.25l-6.34,6.34a2.29,2.29,0,0,1-3.25,0L82.4,236a2.2,2.2,0,0,0-3.09-.16,3.72,3.72,0,0,0-.68,3.62c1.29,3.47,4,10,6.37,11.5,1.38.85,5.19.68,7.68.47a5.5,5.5,0,0,1,3.91,1.36l34.63,34.64a5.53,5.53,0,0,1,1.38,3.91c-.22,2.49-.39,6.3.46,7.68,1.48,2.38,8,5.08,11.5,6.38a3.73,3.73,0,0,0,3.62-.69,2.2,2.2,0,0,0-.16-3.09l-5.53-5.53a2.28,2.28,0,0,1,0-3.24l6.34-6.35a2.31,2.31,0,0,1,3.25,0l5.53,5.53a2.19,2.19,0,0,0,3.08.17,3.72,3.72,0,0,0,.69-3.63c-1.3-3.46-4-10-6.38-11.49-1.38-.86-5.19-.69-7.67-.46a5.55,5.55,0,0,1-3.92-1.38l-34.63-34.63a5.49,5.49,0,0,1-1.37-3.91c.22-2.49.39-6.31-.47-7.68-1.48-2.38-8-5.08-11.49-6.38A3.7,3.7,0,0,0,91.83,223.33Z" transform="translate(-3.29 -57.7)"/><rect class="cls-10" x="115.11" y="239.91" width="9.3" height="47.6" transform="translate(-154.68 104.23) rotate(-45)"/><polygon class="cls-11" points="149.66 178.75 143.42 172.5 136.17 176.76 134.91 181.02 109.12 206.81 115.36 213.04 141.15 187.26 145.4 186 149.66 178.75"/><path class="cls-11" d="M119.59,281.2a2.79,2.79,0,0,0,4,0l1.57-1.58a2.79,2.79,0,0,0,0-3.95l-17.38-17.39a2.79,2.79,0,0,0-4,0l-1.58,1.59a2.77,2.77,0,0,0,0,3.94h0l17.38,17.39Z" transform="translate(-3.29 -57.7)"/><path class="cls-10" d="M87.52,307l-11.4-11.39a4.23,4.23,0,0,1,0-6l26.19-26.19,17.38,17.38L93.5,307A4.21,4.21,0,0,1,87.52,307Z" transform="translate(-3.29 -57.7)"/><path class="cls-11" d="M79.83,290.88a1.1,1.1,0,0,0,0,1.54l.62.62A1.1,1.1,0,0,0,82,293l21.74-21.75a1.09,1.09,0,0,0,0-1.53l-.62-.62a1.08,1.08,0,0,0-1.54,0h0L79.83,290.88Z" transform="translate(-3.29 -57.7)"/><path class="cls-11" d="M85,296a1.1,1.1,0,0,0,0,1.54l.62.62a1.1,1.1,0,0,0,1.54,0l21.74-21.75a1.09,1.09,0,0,0,0-1.53l-.61-.62a1.09,1.09,0,0,0-1.55,0h0L85,296Z" transform="translate(-3.29 -57.7)"/><path class="cls-11" d="M90.12,301.16a1.08,1.08,0,0,0,0,1.54l.61.62a1.1,1.1,0,0,0,1.54,0L114,281.58a1.1,1.1,0,0,0,0-1.54l-.61-.62a1.1,1.1,0,0,0-1.54,0h0L90.12,301.16Z" transform="translate(-3.29 -57.7)"/><path class="cls-12" d="M195.5,208.83h93.78a3.87,3.87,0,0,1,3.87,3.87v60a3.87,3.87,0,0,1-3.87,3.87H195.5a3.87,3.87,0,0,1-3.87-3.87v-60A3.88,3.88,0,0,1,195.5,208.83Z"/><path class="cls-10" d="M285.71,266.52v-.29a2.23,2.23,0,0,0-2.23-2.23H275a2.23,2.23,0,0,0-2.23,2.23v.29Z" transform="translate(-3.29 -57.7)"/><path class="cls-10" d="M218.63,266.52v-.29a2.22,2.22,0,0,0-2.22-2.23h-8.53a2.23,2.23,0,0,0-2.23,2.23v.29Z" transform="translate(-3.29 -57.7)"/><path class="cls-10" d="M205.65,334.27v.29a2.23,2.23,0,0,0,2.23,2.23h8.53a2.22,2.22,0,0,0,2.22-2.23v-.29Z" transform="translate(-3.29 -57.7)"/><path class="cls-10" d="M272.73,334.27v.29a2.23,2.23,0,0,0,2.23,2.23h8.52a2.23,2.23,0,0,0,2.23-2.23v-.29Z" transform="translate(-3.29 -57.7)"/><polygon class="cls-7" points="258.14 238.06 247.04 238.06 247.04 226.95 237.75 226.95 237.75 238.06 226.65 238.06 226.65 247.35 237.75 247.35 237.75 258.44 247.04 258.44 247.04 247.35 258.14 247.35 258.14 238.06"/><path class="cls-7" d="M245.68,324.41a24,24,0,1,1,24-24A24,24,0,0,1,245.68,324.41Zm0-44.16a20.15,20.15,0,1,0,20.15,20.15A20.17,20.17,0,0,0,245.68,280.25Z" transform="translate(-3.29 -57.7)"/><path class="cls-10" d="M263.54,266.52h-5.81v-7.83a1,1,0,0,0-1-1H234.6a1,1,0,0,0-1,1v7.83h-5.81v-7.83a6.8,6.8,0,0,1,6.78-6.78h22.17a6.79,6.79,0,0,1,6.77,6.78Z" transform="translate(-3.29 -57.7)"/></g></svg>