<svg id="Layer_1" data-name="Layer 1" xmlns="http://www.w3.org/2000/svg" viewBox="0 0 181.76 50.7"><defs><style>.cls-1{fill:#fff;}</style></defs><title>social-media-icons</title><path class="cls-1" d="M90.62,0a24.83,24.83,0,1,0,24.82,24.83A24.86,24.86,0,0,0,90.62,0Zm6.17,25.7h-4V40.1h-6V25.7H83.92V20.61h2.85V17.32c0-2.36,1.12-6,6-6l4.43,0v4.94H94a1.22,1.22,0,0,0-1.27,1.38v3h4.56Z"/><path class="cls-1" d="M156.93,1.05a24.83,24.83,0,1,0,24.83,24.83A24.85,24.85,0,0,0,156.93,1.05ZM168,20.2c0,.24,0,.49,0,.74,0,7.55-5.74,16.25-16.26,16.25A16.14,16.14,0,0,1,143,34.63a12.12,12.12,0,0,0,1.36.08,11.5,11.5,0,0,0,7.1-2.45,5.71,5.71,0,0,1-5.34-4,5.39,5.39,0,0,0,1.07.11,5.79,5.79,0,0,0,1.51-.2,5.73,5.73,0,0,1-4.59-5.61.2.2,0,0,1,0-.07,5.66,5.66,0,0,0,2.58.72,5.74,5.74,0,0,1-2.54-4.76,5.67,5.67,0,0,1,.77-2.87,16.22,16.22,0,0,0,11.78,6,5.57,5.57,0,0,1-.15-1.3,5.72,5.72,0,0,1,9.89-3.91A11.49,11.49,0,0,0,170.09,15a5.74,5.74,0,0,1-2.52,3.16,11.22,11.22,0,0,0,3.28-.9A11.59,11.59,0,0,1,168,20.2Z"/><path class="cls-1" d="M24.83,29.8a5,5,0,1,0-4-7.87,4.9,4.9,0,0,0-.94,2.9A5,5,0,0,0,24.83,29.8Z"/><polygon class="cls-1" points="35.68 18.75 35.68 14.58 35.68 13.96 35.05 13.96 30.89 13.97 30.91 18.76 35.68 18.75"/><path class="cls-1" d="M24.83,0A24.83,24.83,0,1,0,49.65,24.83,24.86,24.86,0,0,0,24.83,0ZM38.94,21.93V33.49A5.46,5.46,0,0,1,33.49,39H16.16a5.46,5.46,0,0,1-5.45-5.46V16.17a5.46,5.46,0,0,1,5.45-5.46H33.49a5.46,5.46,0,0,1,5.45,5.46Z"/><path class="cls-1" d="M32.55,24.83a7.73,7.73,0,1,1-14.88-2.9H13.46V33.49a2.7,2.7,0,0,0,2.7,2.7H33.49a2.7,2.7,0,0,0,2.7-2.7V21.93H32A7.73,7.73,0,0,1,32.55,24.83Z"/></svg>